# xmcd
#
# Track frame offsets:
#	150
#	8633
#	24943
#	41556
#	51546
#	63989
#	81593
#	94954
#	110209
#	122718
#	136512
#	147836
#	164782
#	178489
#
# Disc length: 2536 seconds
#
# Revision: 1
# Processed by: cddbd v1.5.1PL0 Copyright (c) Steve Scherf et al.
# Submitted via: audiograbber 1.83.01
#
DISCID=cc09e60e
DTITLE=Jackson Antunes, Juraildes da Cruz, Maciel Melo e Heraldo do Monte - Só 
DTITLE=Forró 2
DYEAR=1900
DGENRE=Forró
TTITLE0=Heraldo do Monte - Sebastiana
TTITLE1=Maciel Melo - Jeito Maroto
TTITLE2=Juraildes da Cruz - Nois é Jeca mais é Joia
TTITLE3=Jackson Antunes - Pagode Russo
TTITLE4=Maciel Melo - Chamando pra Forrozar
TTITLE5=Juraildes da Cruz - Pegando Fogo
TTITLE6=Jackson Antunes - São João na Roça
TTITLE7=Maciel Melo - Na Beirinha do Fogão
TTITLE8=Heraldo do Monte - Qui Nem Jiló
TTITLE9=Juraildes da Cruz - Receita de Mulher
TTITLE10=Jackson Antunes - Riacho do Navio
TTITLE11=Maciel Melo - Carrapeta de Batom
TTITLE12=Jackson Antunes - Coco Martelo Gorutubano
TTITLE13=Maciel Melo - Só Vou de Mulata
EXTD=
EXTT0=
EXTT1=
EXTT2=
EXTT3=
EXTT4=
EXTT5=
EXTT6=
EXTT7=
EXTT8=
EXTT9=
EXTT10=
EXTT11=
EXTT12=
EXTT13=
PLAYORDER=
